<svg width="180" height="60" viewBox="0 0 180 60" fill="none" xmlns="http://www.w3.org/2000/svg">
<path d="M164.299 0H14.2243C13.6772 0 13.1367 0 12.5912 0.00285805C12.1344 0.0057161 11.6814 0.0142917 11.2203 0.0214361C10.2275 0.0457317 9.22224 0.105755 8.23087 0.280106C7.23222 0.451601 6.30421 0.744569 5.39515 1.1976C4.50211 1.64634 3.68627 2.22942 2.98045 2.92254C2.2666 3.61566 1.67513 4.41882 1.22279 5.29487C0.758782 6.18521 0.464501 7.09984 0.29041 8.08021C0.110491 9.04916 0.0485769 10.0295 0.0230821 11.0099C0.00924124 11.4587 0.00778525 11.9088 0.000488281 12.3576C0.000488281 12.8878 0.000488281 13.4194 0.000488281 13.9553V44.5826C0.000488281 45.1229 0.000488281 45.6517 0.000488281 46.1833C0.00778525 46.6377 0.00924124 47.0779 0.0230821 47.5324C0.0485769 48.5128 0.110491 49.4931 0.29041 50.462C0.464501 51.4424 0.758782 52.3614 1.22279 53.2488C1.67513 54.1206 2.2666 54.9239 2.98045 55.6112C3.68627 56.31 4.50211 56.8917 5.39515 57.3361C6.30421 57.7935 7.23222 58.0822 8.23087 58.2593C9.22224 58.4337 10.2275 58.4909 11.2203 58.518C11.6814 58.528 12.1344 58.5337 12.5912 58.5337C13.1367 58.5366 13.6772 58.5366 14.2243 58.5366H164.299C164.835 58.5366 165.38 58.5366 165.916 58.5337C166.371 58.5337 166.837 58.528 167.291 58.518C168.291 58.4909 169.293 58.4337 170.275 58.2593C171.274 58.0822 172.204 57.7935 173.122 57.3361C174.013 56.8917 174.829 56.31 175.534 55.6112C176.245 54.9239 176.836 54.1206 177.297 53.2488C177.754 52.3614 178.052 51.4424 178.22 50.462C178.404 49.4931 178.462 48.5128 178.497 47.5324C178.503 47.0779 178.503 46.6377 178.503 46.1833C178.515 45.6517 178.515 45.1229 178.515 44.5826V13.9553C178.515 13.4194 178.515 12.8878 178.503 12.3576C178.503 11.9088 178.503 11.4587 178.497 11.0099C178.462 10.0295 178.404 9.04916 178.22 8.08021C178.052 7.09984 177.754 6.18521 177.297 5.29487C176.836 4.41882 176.245 3.61566 175.534 2.92254C174.829 2.22942 174.013 1.64634 173.122 1.1976C172.204 0.744569 171.274 0.451601 170.275 0.280106C169.293 0.105755 168.291 0.0457317 167.291 0.0214361C166.837 0.0142917 166.371 0.0057161 165.916 0.00285805C165.38 0 164.835 0 164.299 0Z" fill="black"/>
<path d="M12.5987 57.2561C12.1442 57.2561 11.7006 57.2504 11.2497 57.2404C10.4156 57.2175 9.42645 57.1718 8.4613 57.0018C7.55078 56.8402 6.7415 56.5772 5.98979 56.2C5.21183 55.8127 4.51255 55.3125 3.90579 54.7122C3.28808 54.1178 2.78038 53.4347 2.3834 52.6686C1.99661 51.9299 1.73219 51.1367 1.57339 50.2434C1.3913 49.2588 1.34468 48.2598 1.325 47.4995C1.31554 47.1909 1.30316 46.1633 1.30316 46.1633V12.3576C1.30316 12.3576 1.31627 11.3458 1.325 11.0485C1.34468 10.2818 1.3913 9.28354 1.57194 8.30887C1.73147 7.41067 1.99586 6.61823 2.38267 5.87653C2.77891 5.10909 3.28737 4.42239 3.89705 3.83075C4.51401 3.22479 5.2162 2.72318 5.98905 2.33445C6.75534 1.95288 7.56317 1.69207 8.45547 1.53844C9.45995 1.36195 10.4783 1.31764 11.2533 1.29835L12.5994 1.28049H165.909L167.271 1.29907C168.036 1.31764 169.054 1.36195 170.044 1.53701C170.942 1.69136 171.755 1.9536 172.536 2.33874C173.301 2.72318 174.002 3.22479 174.612 3.82503C175.223 4.41954 175.734 5.1098 176.139 5.8801C176.523 6.62824 176.786 7.42068 176.937 8.29316C177.111 9.21637 177.164 10.1646 177.197 11.0549C177.201 11.4694 177.201 11.9145 177.201 12.3576C177.213 12.9064 177.213 13.4287 177.213 13.9553V44.5826C177.213 45.1143 177.213 45.6331 177.201 46.1561C177.201 46.632 177.201 47.068 177.195 47.5166C177.164 48.3784 177.111 49.326 176.94 50.2291C176.786 51.1266 176.523 51.9198 176.135 52.673C175.733 53.4332 175.221 54.1206 174.619 54.7008C174.003 55.3125 173.304 55.8113 172.532 56.1972C171.758 56.5829 170.969 56.8387 170.044 57.0018C169.088 57.1718 168.099 57.2175 167.255 57.2404C166.818 57.2504 166.361 57.2561 165.916 57.2561L164.299 57.259L12.5987 57.2561Z" fill="white"/>
<path d="M37.2907 29.1064C37.2519 24.9202 40.7848 22.883 40.9465 22.7878C38.9459 19.926 35.8443 19.5346 34.755 19.5042C32.1499 19.236 29.6245 21.0334 28.297 21.0334C26.9438 21.0334 24.9 19.5309 22.6991 19.5753C19.8659 19.6184 17.2143 21.2276 15.7602 23.7265C12.76 28.8222 14.9979 36.311 17.8718 40.4299C19.3097 42.4468 20.9902 44.6998 23.1892 44.6199C25.3409 44.5323 26.1446 43.2739 28.7419 43.2739C31.3152 43.2739 32.0691 44.6199 34.3127 44.5691C36.6216 44.5323 38.0764 42.5432 39.4638 40.5072C41.1255 38.1948 41.7928 35.9177 41.8194 35.801C41.7656 35.7832 37.3347 34.1254 37.2907 29.1064Z" fill="black"/>
<path d="M33.0532 16.7953C34.2099 15.3752 35.0019 13.4438 34.7821 11.4833C33.1069 11.5562 31.012 12.6193 29.8062 14.0089C28.7393 15.2324 27.7856 17.2387 28.0319 19.1243C29.9134 19.2613 31.8454 18.1932 33.0532 16.7953Z" fill="black"/>
<path d="M63.1063 39.7166H56.0451L54.3493 44.6285H51.3585L58.0468 26.4558H61.1542L67.8425 44.6285H64.8006L63.1063 39.7166ZM56.7764 37.45H62.3736L59.6143 29.4784H59.5371L56.7764 37.45Z" fill="black"/>
<path d="M82.287 38.0045C82.287 42.1218 80.0405 44.7671 76.6505 44.7671C74.726 44.7671 73.1978 43.9225 72.4009 42.449H72.3368V49.0115H69.5645V31.3791H72.2479V33.5828H72.2989C73.0696 32.1608 74.7129 31.2405 76.5995 31.2405C80.0274 31.2405 82.287 33.8986 82.287 38.0045ZM79.4374 38.0045C79.4374 35.322 78.0243 33.5585 75.8682 33.5585C73.7499 33.5585 72.3251 35.3592 72.3251 38.0045C72.3251 40.6741 73.7499 42.4619 75.8682 42.4619C78.0243 42.4619 79.4374 40.7112 79.4374 38.0045Z" fill="black"/>
<path d="M97.1532 38.0045C97.1532 42.1218 94.9061 44.7671 91.516 44.7671C89.5915 44.7671 88.0633 43.9225 87.2664 42.449H87.2023V49.0115H84.43V31.3791H87.1135V33.5828H87.1645C87.9351 32.1608 89.5784 31.2405 91.465 31.2405C94.8929 31.2405 97.1532 33.8986 97.1532 38.0045ZM94.3029 38.0045C94.3029 35.322 92.8898 33.5585 90.7337 33.5585C88.6155 33.5585 87.1907 35.3592 87.1907 38.0045C87.1907 40.6741 88.6155 42.4619 90.7337 42.4619C92.8898 42.4619 94.3029 40.7112 94.3029 38.0045Z" fill="black"/>
<path d="M106.977 39.5651C107.182 41.3672 108.967 42.5505 111.405 42.5505C113.742 42.5505 115.423 41.3672 115.423 39.7423C115.423 38.3318 114.409 37.4872 112.009 36.9084L109.608 36.341C106.206 35.535 104.627 33.9744 104.627 31.442C104.627 28.3065 107.412 26.1528 111.366 26.1528C115.282 26.1528 117.966 28.3065 118.056 31.442H115.257C115.09 29.6284 113.562 28.5337 111.328 28.5337C109.095 28.5337 107.567 29.6413 107.567 31.2533C107.567 32.5381 108.543 33.2941 110.93 33.8729L112.972 34.3645C116.772 35.2463 118.35 36.744 118.35 39.4022C118.35 42.802 115.591 44.9314 111.2 44.9314C107.092 44.9314 104.318 42.8521 104.139 39.5651H106.977Z" fill="black"/>
<path d="M124.336 28.2436V31.3791H126.905V33.5328H124.336V40.837C124.336 41.9717 124.851 42.5005 125.98 42.5005C126.262 42.5005 126.712 42.4619 126.892 42.4376V44.5784C126.584 44.6542 125.968 44.7042 125.352 44.7042C122.617 44.7042 121.551 43.6967 121.551 41.1271V33.5328H119.587V31.3791H121.551V28.2436H124.336Z" fill="black"/>
<path d="M128.391 38.0045C128.391 33.8358 130.893 31.2162 134.796 31.2162C138.712 31.2162 141.203 33.8358 141.203 38.0045C141.203 42.1846 138.725 44.7928 134.796 44.7928C130.869 44.7928 128.391 42.1846 128.391 38.0045ZM138.379 38.0045C138.379 35.1448 137.043 33.457 134.796 33.457C132.55 33.457 131.214 35.1577 131.214 38.0045C131.214 40.8756 132.55 42.5505 134.796 42.5505C137.043 42.5505 138.379 40.8756 138.379 38.0045Z" fill="black"/>
<path d="M143.489 31.3791H146.133V33.6342H146.197C146.621 32.1351 147.854 31.2405 149.446 31.2405C149.844 31.2405 150.178 31.2919 150.396 31.3419V33.8858C150.178 33.7972 149.689 33.7214 149.15 33.7214C147.366 33.7214 146.262 34.9062 146.262 36.7697V44.6284H143.489V31.3791Z" fill="black"/>
<path d="M163.178 40.737C162.805 43.1422 160.418 44.7928 157.363 44.7928C153.434 44.7928 150.995 42.2104 150.995 38.0674C150.995 33.9115 153.447 31.2162 157.246 31.2162C160.983 31.2162 163.333 33.7343 163.333 37.7515V38.6833H153.793V38.8477C153.793 41.1142 155.244 42.6005 157.427 42.6005C158.967 42.6005 160.174 41.8831 160.546 40.737H163.178ZM153.806 36.7826H160.559C160.495 34.7547 159.172 33.4199 157.246 33.4199C155.333 33.4199 153.948 34.7804 153.806 36.7826Z" fill="black"/>
<path d="M56.7006 12.777C58.4401 12.777 59.6361 13.9567 59.6361 15.6874C59.6361 17.3938 58.4037 18.5678 56.6569 18.5678H54.597V21.5089H53.2144V12.777H56.7006ZM54.597 17.3759H56.3364C57.5266 17.3759 58.2245 16.7707 58.2245 15.6874C58.2245 14.5798 57.5514 13.9746 56.3364 13.9746H54.597V17.3759Z" fill="black"/>
<path d="M61.447 14.9192H62.7231V15.9296H62.8222C63.0131 15.2822 63.759 14.8099 64.636 14.8099C64.8326 14.8099 65.0861 14.8278 65.2274 14.8642V16.1476C65.1167 16.1111 64.7219 16.069 64.4874 16.069C63.4822 16.069 62.7727 16.6921 62.7727 17.6181V21.5089H61.447V14.9192Z" fill="black"/>
<path d="M72.1998 19.7296C71.8983 20.9101 70.8246 21.6361 69.2891 21.6361C67.3646 21.6361 66.186 20.3413 66.186 18.2348C66.186 16.129 67.3894 14.7921 69.2833 14.7921C71.1524 14.7921 72.28 16.0447 72.28 18.114V18.5678H67.5365V18.6407C67.5802 19.7961 68.2649 20.5285 69.3255 20.5285C70.1282 20.5285 70.6774 20.2441 70.9237 19.7296H72.1998ZM67.5365 17.606H70.9295C70.8989 16.5713 70.2579 15.8989 69.276 15.8989C68.2955 15.8989 67.6108 16.577 67.5365 17.606Z" fill="black"/>
<path d="M74.0836 18.6285V17.3516H78.1306V18.6285H74.0836Z" fill="black"/>
<path d="M79.9283 18.2112C79.9283 16.0868 81.1375 14.7921 83.0984 14.7921C85.0549 14.7921 86.2641 16.0868 86.2641 18.2112C86.2641 20.347 85.0608 21.6361 83.0984 21.6361C81.1317 21.6361 79.9283 20.347 79.9283 18.2112ZM84.9005 18.2112C84.9005 16.7828 84.2464 15.9475 83.0984 15.9475C81.9461 15.9475 81.2978 16.7828 81.2978 18.2112C81.2978 19.651 81.9461 20.4799 83.0984 20.4799C84.2464 20.4799 84.9005 19.6453 84.9005 18.2112Z" fill="black"/>
<path d="M88.0429 14.9192H89.3191V15.9296H89.4182C89.609 15.2822 90.3549 14.8099 91.2319 14.8099C91.4286 14.8099 91.6821 14.8278 91.8234 14.8642V16.1476C91.7127 16.1111 91.3179 16.069 91.0833 16.069C90.0781 16.069 89.3686 16.6921 89.3686 17.6181V21.5089H88.0429V14.9192Z" fill="black"/>
<path d="M92.7834 18.2112C92.7834 16.129 93.8746 14.8099 95.5718 14.8099C96.491 14.8099 97.2682 15.2394 97.6324 15.9661H97.7315V12.3468H99.0572V21.5089H97.7869V20.4678H97.682C97.2813 21.1881 96.4968 21.6175 95.5718 21.6175C93.8629 21.6175 92.7834 20.2984 92.7834 18.2112ZM94.1528 18.2112C94.1528 19.6089 94.8244 20.4499 95.9476 20.4499C97.0657 20.4499 97.7563 19.5967 97.7563 18.2169C97.7563 16.8435 97.0585 15.9782 95.9476 15.9782C94.8317 15.9782 94.1528 16.825 94.1528 18.2112Z" fill="black"/>
<path d="M106.912 19.7296C106.611 20.9101 105.537 21.6361 104.002 21.6361C102.077 21.6361 100.899 20.3413 100.899 18.2348C100.899 16.129 102.102 14.7921 103.996 14.7921C105.865 14.7921 106.993 16.0447 106.993 18.114V18.5678H102.249V18.6407C102.293 19.7961 102.978 20.5285 104.038 20.5285C104.841 20.5285 105.39 20.2441 105.636 19.7296H106.912ZM102.249 17.606H105.642C105.612 16.5713 104.971 15.8989 103.989 15.8989C103.008 15.8989 102.323 16.577 102.249 17.606Z" fill="black"/>
<path d="M108.773 14.9192H110.049V15.9296H110.148C110.339 15.2822 111.085 14.8099 111.962 14.8099C112.159 14.8099 112.412 14.8278 112.553 14.8642V16.1476C112.443 16.1111 112.048 16.069 111.813 16.069C110.808 16.069 110.099 16.6921 110.099 17.6181V21.5089H108.773V14.9192Z" fill="black"/>
<path d="M117.329 18.2112C117.329 16.0868 118.538 14.7921 120.499 14.7921C122.455 14.7921 123.665 16.0868 123.665 18.2112C123.665 20.347 122.461 21.6361 120.499 21.6361C118.532 21.6361 117.329 20.347 117.329 18.2112ZM122.301 18.2112C122.301 16.7828 121.647 15.9475 120.499 15.9475C119.347 15.9475 118.698 16.7828 118.698 18.2112C118.698 19.651 119.347 20.4799 120.499 20.4799C121.647 20.4799 122.301 19.6453 122.301 18.2112Z" fill="black"/>
<path d="M125.445 14.9192H126.721V15.9661H126.82C127.146 15.2337 127.814 14.7921 128.825 14.7921C130.324 14.7921 131.15 15.6752 131.15 17.243V21.5089H129.824V17.5695C129.824 16.5106 129.355 15.9839 128.375 15.9839C127.394 15.9839 126.771 16.6256 126.771 17.6539V21.5089H125.445V14.9192Z" fill="black"/>
<path d="M138.639 13.2786V14.9493H140.095V16.0447H138.639V19.4331C138.639 20.1234 138.929 20.4256 139.589 20.4256C139.793 20.4256 139.91 20.4135 140.095 20.3956V21.4789C139.879 21.5146 139.633 21.5453 139.374 21.5453C137.899 21.5453 137.312 21.0366 137.312 19.7661V16.0447H136.246V14.9493H137.312V13.2786H138.639Z" fill="black"/>
<path d="M141.906 12.3468H143.22V15.9782H143.325C143.651 15.2394 144.36 14.7978 145.373 14.7978C146.803 14.7978 147.686 15.6874 147.686 17.2544V21.5089H146.359V17.5753C146.359 16.5227 145.859 15.9896 144.923 15.9896C143.836 15.9896 143.231 16.662 143.231 17.6603V21.5089H141.906V12.3468Z" fill="black"/>
<path d="M155.416 19.7296C155.115 20.9101 154.041 21.6361 152.505 21.6361C150.581 21.6361 149.402 20.3413 149.402 18.2348C149.402 16.129 150.606 14.7921 152.5 14.7921C154.369 14.7921 155.496 16.0447 155.496 18.114V18.5678H150.753V18.6407C150.797 19.7961 151.481 20.5285 152.542 20.5285C153.345 20.5285 153.894 20.2441 154.14 19.7296H155.416ZM150.753 17.606H154.146C154.115 16.5713 153.474 15.8989 152.492 15.8989C151.512 15.8989 150.827 16.577 150.753 17.606Z" fill="black"/>
</svg>
