<svg width="60" height="60" viewBox="0 0 60 60" fill="none" xmlns="http://www.w3.org/2000/svg">
<rect opacity="0.3" width="60" height="60" rx="13.3" fill="#FF3B30"/>
<mask id="mask0" mask-type="alpha" maskUnits="userSpaceOnUse" x="0" y="0" width="60" height="60">
<rect width="60" height="60" rx="13.3" fill="white"/>
</mask>
<g mask="url(#mask0)">
<rect width="60" height="60" fill="url(#paint0_linear)"/>
<path d="M34.9994 9.66667C34.1155 9.66686 33.2678 10.0681 32.6428 10.7823C32.0178 11.4964 31.6667 12.4648 31.6667 13.4747V29.6667H38.3334V13.4747C38.3334 12.4647 37.9822 11.4961 37.357 10.782C36.7319 10.0679 35.8835 9.66667 34.9994 9.66667Z" fill="white"/>
<path d="M38.518 40.9847C39.8611 42.7222 41.9444 44.9868 41.9444 47.9305C41.9444 52.1395 39.2187 55.3736 35 55.3736C30.7812 55.3736 27.3611 51.9611 27.3611 47.7521C27.3611 44.7979 29.2041 42.2493 31.6666 40.9847V28C31.6666 28 37.4986 28.9583 38.3333 27.1667L38.518 40.9847Z" fill="#FF3B30"/>
<path d="M35.6944 28.1389C36.8701 28.0348 36.8035 27.7993 38.3333 27.1666L38.4722 40.5C38.4722 40.8868 38.9812 41.3986 39.2264 41.7007C40.7319 43.5549 42.1792 45.3195 42.1792 48.0139C42.1792 52.1764 38.884 55.5695 35 55.2223C35 55.2223 41.9514 49.6993 36.1104 43.466C35.8632 43.2021 35.7278 42.6118 35.7278 42.2334L35.6944 28.1389Z" fill="#D22F27"/>
<rect x="41.6667" y="11.3333" width="6.66667" height="1.66667" fill="white"/>
<rect x="41.6667" y="14.6667" width="6.66667" height="1.66667" fill="white"/>
<rect x="41.6667" y="18" width="6.66667" height="1.66667" fill="white"/>
</g>
<defs>
<linearGradient id="paint0_linear" x1="31.5" y1="57" x2="30" y2="-1.73505e-06" gradientUnits="userSpaceOnUse">
<stop stop-color="#18C635"/>
<stop offset="1" stop-color="#18C635" stop-opacity="0.65"/>
</linearGradient>
</defs>
</svg>
